<svg width="152" height="29" viewBox="0 0 152 29" fill="none" xmlns="http://www.w3.org/2000/svg">
<g clip-path="url(#clip0_15_2)">
<mask id="mask0_15_2" style="mask-type:luminance" maskUnits="userSpaceOnUse" x="35" y="4" width="117" height="20">
<path d="M151.41 4.78027H35.03V23.3603H151.41V4.78027Z" fill="white"/>
</mask>
<g mask="url(#mask0_15_2)">
<path d="M51.74 7.40004C50.87 6.56004 49.84 5.92004 48.65 5.47004C47.46 5.02004 46.17 4.79004 44.78 4.79004C43.39 4.79004 42.07 5.02004 40.88 5.49004C39.69 5.95004 38.66 6.60004 37.78 7.44004C36.9 8.28004 36.22 9.25004 35.74 10.38C35.26 11.51 35.02 12.74 35.02 14.08C35.02 15.42 35.26 16.63 35.74 17.76C36.22 18.89 36.9 19.87 37.78 20.71C38.66 21.55 39.69 22.21 40.89 22.67C42.09 23.13 43.38 23.37 44.77 23.37C46.16 23.37 47.46 23.14 48.64 22.69C49.83 22.24 50.86 21.58 51.73 20.74C52.6 19.9 53.28 18.91 53.76 17.79C54.24 16.66 54.48 15.43 54.48 14.09C54.48 12.75 54.24 11.51 53.76 10.37C53.28 9.23004 52.6 8.25004 51.73 7.42004L51.74 7.40004ZM50.63 16.62C50.31 17.39 49.87 18.07 49.3 18.63C48.73 19.2 48.06 19.64 47.3 19.95C46.53 20.26 45.7 20.41 44.78 20.41C43.86 20.41 43.02 20.26 42.24 19.95C41.46 19.64 40.78 19.2 40.21 18.62C39.64 18.04 39.19 17.37 38.87 16.59C38.54 15.82 38.38 14.97 38.38 14.06C38.38 13.15 38.54 12.29 38.87 11.52C39.2 10.76 39.64 10.08 40.21 9.51004C40.78 8.93004 41.45 8.49004 42.24 8.18004C43.02 7.87004 43.87 7.72004 44.78 7.72004C45.69 7.72004 46.53 7.87004 47.3 8.18004C48.07 8.49004 48.74 8.93004 49.31 9.50004C49.89 10.07 50.33 10.74 50.64 11.51C50.95 12.28 51.1 13.13 51.1 14.06C51.1 14.99 50.94 15.84 50.62 16.61L50.63 16.62Z" fill="#072357"/>
<path d="M70.78 17.2803L60.81 5.03027H58.05V23.0903H61.38V10.8403L71.32 23.0903H74.08V5.03027H70.77V17.2803H70.78Z" fill="#072357"/>
<path d="M82.32 15.3003H91.05V12.5403H82.32V7.87027H92.16V5.03027H78.97V23.0903H92.52V20.2503H82.32V15.3003Z" fill="#072357"/>
<path d="M109.32 6.16004C107.83 5.41004 106.12 5.04004 104.19 5.04004H96.27V23.1H104.19C106.12 23.1 107.82 22.73 109.32 21.98C110.81 21.23 111.97 20.18 112.79 18.82C113.62 17.46 114.03 15.88 114.03 14.07C114.03 12.26 113.62 10.68 112.79 9.32004C111.96 7.96004 110.81 6.91004 109.32 6.16004ZM109.83 17.32C109.27 18.25 108.5 18.97 107.51 19.49C106.52 20.01 105.35 20.26 103.99 20.26H99.63V7.87004H103.99C105.35 7.87004 106.53 8.13004 107.51 8.64004C108.5 9.16004 109.27 9.87004 109.83 10.78C110.39 11.69 110.67 12.79 110.67 14.06C110.67 15.33 110.39 16.38 109.83 17.31V17.32Z" fill="#072357"/>
<path d="M130.32 17.2803L120.35 5.03027H117.59V23.0903H120.92V10.8403L130.86 23.0903H133.62V5.03027H130.32V17.2803Z" fill="#072357"/>
<path d="M150.83 15.6503C150.44 15.0403 149.93 14.5503 149.29 14.1803C148.65 13.8103 147.96 13.5103 147.2 13.2803C146.44 13.0503 145.68 12.8503 144.9 12.6803C144.13 12.5103 143.43 12.3303 142.8 12.1403C142.17 11.9503 141.66 11.6903 141.28 11.3503C140.89 11.0203 140.7 10.5703 140.7 10.0203C140.7 9.57027 140.83 9.16027 141.1 8.79027C141.37 8.42027 141.79 8.12027 142.38 7.90027C142.96 7.68027 143.71 7.57027 144.63 7.57027C145.42 7.57027 146.25 7.69027 147.11 7.92027C147.97 8.15027 148.81 8.51027 149.61 8.99027L150.67 6.38027C149.88 5.86027 148.95 5.47027 147.88 5.19027C146.81 4.91027 145.74 4.78027 144.65 4.78027C143 4.78027 141.63 5.03027 140.56 5.51027C139.48 6.00027 138.68 6.66027 138.16 7.47027C137.63 8.29027 137.37 9.19027 137.37 10.1703C137.37 11.1503 137.56 11.9203 137.95 12.5403C138.34 13.1603 138.85 13.6503 139.49 14.0203C140.13 14.3903 140.83 14.7003 141.59 14.9403C142.36 15.1803 143.12 15.3803 143.89 15.5403C144.65 15.7003 145.35 15.8803 145.98 16.0803C146.61 16.2803 147.12 16.5403 147.52 16.8803C147.92 17.2203 148.11 17.6603 148.11 18.2103C148.11 18.6603 147.97 19.0603 147.7 19.4103C147.42 19.7603 146.99 20.0403 146.41 20.2503C145.83 20.4603 145.06 20.5603 144.11 20.5603C142.99 20.5603 141.9 20.3703 140.83 19.9903C139.76 19.6103 138.87 19.1403 138.14 18.5703L136.98 21.1803C137.75 21.8203 138.78 22.3403 140.07 22.7403C141.35 23.1503 142.7 23.3403 144.11 23.3403C145.76 23.3403 147.13 23.0903 148.22 22.6103C149.3 22.1203 150.11 21.4703 150.63 20.6503C151.16 19.8303 151.42 18.9403 151.42 17.9803C151.42 17.0203 151.23 16.2603 150.84 15.6503H150.83Z" fill="#072357"/>
</g>
<path d="M13.53 0.219727L0 7.22973V21.3197L13.53 28.6597L27.06 21.3197V7.22973L13.53 0.219727ZM23.68 18.9797L13.53 24.2997V14.6897L3.38 9.30973L13.53 3.95973L23.68 9.30973V18.9897V18.9797Z" fill="#196DF6"/>
<path d="M10.15 9.30926L16.92 12.9293V18.9893L20.3 17.2193V11.0793L13.53 7.48926L10.15 9.30926Z" fill="#072357"/>
</g>
<defs>
<clipPath id="clip0_15_2">
<rect width="151.41" height="28.66" fill="white"/>
</clipPath>
</defs>
</svg>
